<svg
              xmlns="http://www.w3.org/2000/svg"
              width="18"
              height="18"
              viewBox="0 0 18 18"
              fill="none"
            >
              <path
                d="M9 18C7.21997 18 5.47991 17.4722 3.99987 16.4832C2.51983 15.4943 1.36628 14.0887 0.685088 12.4442C0.00389964 10.7996 -0.17433 8.99002 0.172936 7.24419C0.520203 5.49836 1.37737 3.89471 2.63604 2.63604C3.89471 1.37737 5.49836 0.520203 7.24419 0.172936C8.99002 -0.17433 10.7996 0.00389964 12.4442 0.685088C14.0887 1.36628 15.4943 2.51983 16.4832 3.99987C17.4722 5.47991 18 7.21997 18 9C18 11.3869 17.0518 13.6761 15.364 15.364C13.6761 17.0518 11.3869 18 9 18ZM9 1.2C7.45731 1.2 5.94926 1.65747 4.66655 2.51454C3.38385 3.37162 2.38411 4.58981 1.79374 6.01507C1.20338 7.44033 1.04891 9.00866 1.34988 10.5217C1.65084 12.0348 2.39372 13.4246 3.48457 14.5154C4.57542 15.6063 5.96525 16.3492 7.4783 16.6501C8.99135 16.9511 10.5597 16.7966 11.9849 16.2063C13.4102 15.6159 14.6284 14.6162 15.4855 13.3334C16.3425 12.0507 16.8 10.5427 16.8 9C16.8 6.93131 15.9782 4.94735 14.5154 3.48457C13.0527 2.02179 11.0687 1.2 9 1.2Z"
                fill="#410001"
              />
              <path
                d="M11.544 12.3962L8.57403 9.42619C8.51843 9.37013 8.47443 9.30364 8.44457 9.23054C8.41471 9.15744 8.39958 9.07916 8.40003 9.00019V4.2002H9.60003V8.75419L12.396 11.5442L11.544 12.3962Z"
                fill="#410001"
              />
            </svg>