<svg xmlns="http://www.w3.org/2000/svg" width="20" height="27" viewBox="0 0 20 27" fill="none" class="fill-blue-500">
<path d="M9.88638 2.04541C7.62676 2.04787 5.4604 2.94659 3.86262 4.54438C2.26483 6.14217 1.36611 8.30853 1.36365 10.5681C1.36365 18.2641 8.68787 24.2123 8.99859 24.462C9.25077 24.6631 9.56379 24.7727 9.88638 24.7727C10.209 24.7727 10.522 24.6631 10.7742 24.462C11.0849 24.2123 18.4091 18.2641 18.4091 10.5681C18.4066 8.30853 17.5079 6.14217 15.9101 4.54438C14.3123 2.94659 12.146 2.04787 9.88638 2.04541ZM9.88638 21.4463C8.09139 19.7317 4.20456 15.4537 4.20456 10.5681C4.20456 9.06123 4.80318 7.61603 5.86872 6.55049C6.93427 5.48494 8.37946 4.88632 9.88638 4.88632C11.3933 4.88632 12.8385 5.48494 13.904 6.55049C14.9696 7.61603 15.5682 9.06123 15.5682 10.5681C15.5682 15.4537 11.6814 19.7317 9.88638 21.4463Z" fill="#295EA7"/>
<path d="M9.88608 7.72729C9.3242 7.72729 8.77494 7.89391 8.30775 8.20607C7.84057 8.51824 7.47644 8.96193 7.26142 9.48104C7.0464 10.0001 6.99014 10.5714 7.09975 11.1224C7.20937 11.6735 7.47994 12.1797 7.87725 12.577C8.27456 12.9743 8.78076 13.2449 9.33184 13.3545C9.88293 13.4641 10.4541 13.4079 10.9732 13.1929C11.4924 12.9778 11.936 12.6137 12.2482 12.1465C12.5604 11.6793 12.727 11.1301 12.727 10.5682C12.726 9.81505 12.4264 9.09302 11.8938 8.56046C11.3613 8.0279 10.6392 7.72828 9.88608 7.72729Z" fill="#295EA7"/>
<path d="M9.88608 7.72729C9.3242 7.72729 8.77494 7.89391 8.30775 8.20607C7.84057 8.51824 7.47644 8.96193 7.26142 9.48104C7.0464 10.0001 6.99014 10.5714 7.09975 11.1224C7.20937 11.6735 7.47994 12.1797 7.87725 12.577C8.27456 12.9743 8.78076 13.2449 9.33184 13.3545C9.88293 13.4641 10.4541 13.4079 10.9732 13.1929C11.4924 12.9778 11.936 12.6137 12.2482 12.1465C12.5604 11.6793 12.727 11.1301 12.727 10.5682C12.726 9.81505 12.4264 9.09302 11.8938 8.56046C11.3613 8.0279 10.6392 7.72828 9.88608 7.72729Z" stroke="black"/>
</svg>