<svg xmlns="http://www.w3.org/2000/svg" width="17" height="22" viewBox="0 0 17 22" fill="none">
  <path fill-rule="evenodd" clip-rule="evenodd" d="M14.1667 21.388H2.83333C1.2682 21.388 0 20.3475 0 19.0632V10.694C0 9.41027 1.2682 8.36923 2.83333 8.36923H5.1C5.41337 8.36923 5.66667 8.57753 5.66667 8.83419C5.66667 9.09084 5.41337 9.29915 5.1 9.29915H2.83333C1.89493 9.29915 1.13333 9.92405 1.13333 10.694V19.0632C1.13333 19.8337 1.89493 20.4581 2.83333 20.4581H14.1667C15.1056 20.4581 15.8667 19.8337 15.8667 19.0632V10.694C15.8667 9.92405 15.1056 9.29915 14.1667 9.29915H11.9C11.5866 9.29915 11.3333 9.09084 11.3333 8.83419C11.3333 8.57753 11.5866 8.36923 11.9 8.36923H14.1667C15.7318 8.36923 17 9.41027 17 10.694V19.0632C17 20.3475 15.7318 21.388 14.1667 21.388ZM12.6559 4.51706L9.06667 1.57202V13.4838C9.06667 13.7409 8.81337 13.9487 8.5 13.9487C8.18663 13.9487 7.93333 13.7409 7.93333 13.4838V1.57202L4.34407 4.51706C4.12817 4.69421 3.77797 4.69421 3.5615 4.51706C3.3456 4.33991 3.3456 4.0521 3.5615 3.87495L8.041 0.199467C8.05913 0.177614 8.07103 0.152506 8.09483 0.132513C8.20533 0.0423111 8.3504 -0.000929927 8.49433 0.000929903C8.4966 0.000929903 8.49773 0 8.5 0C8.50227 0 8.50397 0.000929903 8.50567 0.000929903C8.65073 -0.000464969 8.79523 0.0423111 8.90517 0.132513C8.9284 0.152041 8.93917 0.176219 8.95673 0.197607L13.4385 3.87495C13.6544 4.0521 13.6544 4.33991 13.4385 4.51706C13.222 4.69421 12.8718 4.69421 12.6559 4.51706Z" fill="#295EA7"/>
</svg>