<svg width="18" height="19" viewBox="0 0 18 19" fill="none" xmlns="http://www.w3.org/2000/svg">
<path d="M9 18.5C4.05 18.5 0 14.45 0 9.5C0 4.55 4.05 0.5 9 0.5C13.95 0.5 18 4.55 18 9.5C18 14.45 13.95 18.5 9 18.5ZM7.125 13.25C7.575 15.575 8.4 17 9 17C9.6 17 10.425 15.575 10.875 13.25H7.125ZM12.45 13.25C12.225 14.525 11.85 15.725 11.4 16.625C13.125 16.025 14.625 14.825 15.525 13.25H12.45ZM2.475 13.25C3.375 14.825 4.875 16.025 6.6 16.625C6.15 15.725 5.775 14.525 5.55 13.25H2.475ZM12.675 11.75H16.2C16.35 11.075 16.5 10.25 16.5 9.5C16.5 8.75 16.35 7.925 16.125 7.25H12.6C12.75 8 12.75 8.75 12.75 9.5C12.75 10.25 12.75 11 12.675 11.75ZM6.9 11.75H11.175C11.25 11.075 11.325 10.325 11.325 9.5C11.325 8.675 11.25 7.925 11.175 7.25H6.9C6.825 7.925 6.75 8.675 6.75 9.5C6.75 10.325 6.825 11.075 6.9 11.75ZM1.875 11.75H5.4C5.325 11 5.325 10.25 5.325 9.5C5.325 8.75 5.325 8 5.4 7.25H1.875C1.65 7.925 1.5 8.75 1.5 9.5C1.5 10.25 1.65 11.075 1.875 11.75ZM12.45 5.75H15.525C14.625 4.175 13.125 2.975 11.4 2.375C11.85 3.275 12.225 4.475 12.45 5.75ZM7.125 5.75H10.95C10.5 3.425 9.675 2 9.075 2C8.475 2 7.575 3.425 7.125 5.75ZM2.475 5.75H5.55C5.775 4.475 6.15 3.275 6.6 2.375C4.875 2.975 3.45 4.175 2.475 5.75Z" fill="black"/>
</svg>
