<svg xmlns="http://www.w3.org/2000/svg" width="40" height="40" fill="none"><path fill="#fff" d="M37 19.5C37 28.613 29.389 36 20 36S3 28.613 3 19.5 10.611 3 20 3s17 7.387 17 16.5Z"/><path fill="#E68C81" d="M20.403 16.453c.137.187.205.405.205.654 0 .261-.025.51-.074.746a3.834 3.834 0 0 1-.206.728c-.1.25-.23.53-.392.84-.161.299-.367.66-.616 1.083l-.056-.056a.166.166 0 0 0-.018-.075 4.891 4.891 0 0 1-.411-.765 5.89 5.89 0 0 1-.261-.915 3.91 3.91 0 0 1-.038-.933c.025-.324.106-.629.243-.915.087-.174.224-.33.41-.466.2-.137.424-.206.673-.206a.61.61 0 0 1 .541.28ZM18.947 23.379c.174-.299.342-.579.504-.84l.672.746c-.286.174-.579.349-.877.523-.299.162-.591.323-.878.485.212-.323.405-.628.579-.914Z"/><path fill="#E68C81" fill-rule="evenodd" d="M20 40c11.046 0 20-8.954 20-20S31.046 0 20 0 0 8.954 0 20s8.954 20 20 20Zm-9.383-21.162c.111.014.202.02.272.02.32-.041.635-.07.942-.083l.92-.084c0 .237.007.481.021.733l.042.711c-.265.28-.642.502-1.13.67a4.723 4.723 0 0 1-1.444.272c-.474.014-.9-.056-1.277-.21-.377-.167-.586-.439-.628-.816-.055-.432 0-.9.168-1.402.167-.516.39-1.011.67-1.486.293-.488.606-.928.941-1.318.335-.405.642-.705.921-.9.28-.182.496-.238.649-.168.168.056.37.23.607.524.153.18.335.195.544.041.098-.097.14-.202.126-.314a.68.68 0 0 0-.126-.314 3.16 3.16 0 0 0-.356-.418 1.616 1.616 0 0 0-.44-.377 1.152 1.152 0 0 0-.522-.21 1.202 1.202 0 0 0-.586.022 5.232 5.232 0 0 0-1.675 1.11 8.296 8.296 0 0 0-2.114 3.41c-.195.628-.293 1.214-.293 1.759 0 .572.175 1.06.524 1.465.362.39.83.67 1.402.837.586.153 1.242.174 1.967.063.726-.112 1.465-.398 2.219-.858.111.878.3 1.66.565 2.344.14.362.356.544.649.544.153 0 .265-.042.334-.126a.336.336 0 0 0 .084-.314c-.042-.307-.09-.683-.146-1.13-.042-.446-.084-.914-.126-1.402a577.8 577.8 0 0 0-.125-1.444 23.247 23.247 0 0 1-.042-1.319h.795c.265 0 .516.007.754.021.223.014.446-.049.67-.188a.656.656 0 0 0 .334-.586.443.443 0 0 0-.105-.293c-.07-.084-.216-.126-.44-.126-.39-.014-.808-.035-1.255-.063-.446-.042-.9-.07-1.36-.083-.46-.028-.921-.028-1.382 0-.46.014-.9.07-1.318.167-.307.084-.53.21-.67.377-.125.153-.188.286-.188.397 0 .084.035.168.104.252.07.07.147.132.23.188.098.042.196.077.294.105Zm7.9 6.631c.25-.05.486-.137.71-.261.299-.162.597-.33.896-.504.299-.174.591-.349.877-.523.436.423.859.81 1.27 1.158.137 0 .305-.013.504-.038a.856.856 0 0 0 .522-.242c.063-.088.044-.193-.056-.318a2.507 2.507 0 0 0-.28-.336l-.466-.429-.467-.467a20.46 20.46 0 0 0 1.008-.69c.324-.237.635-.467.933-.691.112-.075.212-.162.299-.261a.978.978 0 0 0 .205-.336.462.462 0 0 0 0-.318c-.025-.112-.1-.205-.224-.28-.348 0-.715.112-1.101.336-.324.224-.653.455-.99.691-.323.224-.659.448-1.007.672l-.56-.56c-.175-.2-.343-.392-.504-.579.286-.485.529-.914.728-1.288.199-.373.36-.715.485-1.026a5.34 5.34 0 0 0 .299-.84c.062-.262.105-.517.13-.766a4.53 4.53 0 0 0-.093-1.12 1.91 1.91 0 0 0-.355-.84 1.52 1.52 0 0 0-.709-.522c-.286-.112-.647-.143-1.083-.094-.435.087-.84.293-1.213.616-.36.324-.61.697-.747 1.12a4.337 4.337 0 0 0-.168 1.998c.112.684.33 1.306.654 1.866.074.15.168.305.28.467.112.162.236.336.373.523-.41.66-.896 1.462-1.456 2.408-.174.36-.187.672-.037.933.112.212.323.373.634.485.237.075.473.094.71.056Zm13.228-5.857c.168-.14.223-.28.168-.419a1.884 1.884 0 0 0-.754-.502 1.995 1.995 0 0 0-.858-.105c-.363.028-.851.084-1.465.168-.614.07-1.214.153-1.8.251l.042-1.088c.014-.363.035-.726.063-1.089a.185.185 0 0 0-.021-.083v-.105c.279-.042.572-.077.879-.105.32-.041.635-.083.942-.125.32-.042.628-.077.92-.105.293-.042.545-.077.754-.104.21-.028.377-.091.502-.189.14-.098.182-.244.126-.44a1.844 1.844 0 0 0-.775-.48 2.094 2.094 0 0 0-.837-.085c-.25.014-.558.042-.92.084-.35.042-.72.09-1.11.147-.377.056-.746.118-1.11.188-.362.07-.669.133-.92.188-.154.056-.258.14-.314.252a.663.663 0 0 0-.084.335c0 .153.056.293.168.418a.786.786 0 0 0 .418.23c-.028.405-.049.817-.063 1.235-.013.405-.034.81-.062 1.214-.224.098-.35.28-.377.544 0 .251.119.447.356.586a25.656 25.656 0 0 0 0 2.072c.014.488.14.865.377 1.13.237.252.586.37 1.046.356a11.663 11.663 0 0 0 2.449-.314c.837-.21 1.688-.453 2.553-.732.126-.042.265-.098.419-.168a6.9 6.9 0 0 0 .46-.25c.154-.099.28-.19.377-.273.098-.084.146-.146.146-.188 0-.154-.041-.272-.125-.356a.53.53 0 0 0-.335-.147 1.159 1.159 0 0 0-.44 0 2.66 2.66 0 0 0-.481.084c-.307.07-.684.16-1.13.272-.433.098-.886.195-1.36.293-.475.098-.942.182-1.403.251-.446.056-.83.084-1.15.084a27.232 27.232 0 0 1 0-2.135 135.27 135.27 0 0 1 2.008-.272c.656-.098 1.298-.188 1.926-.272.363-.042.628-.125.795-.251Z" clip-rule="evenodd"/></svg>