<svg width="31" height="31" viewBox="0 0 31 31" fill="none" xmlns="http://www.w3.org/2000/svg">
<path d="M15.5 0C6.95278 0 0 6.95343 0 15.5C0 24.0466 6.95278 31 15.5 31C24.0472 31 31 24.0466 31 15.5C31 6.95343 24.0472 0 15.5 0ZM15.5 28.4167C8.37814 28.4167 2.58333 22.6225 2.58333 15.5C2.58333 8.37749 8.37814 2.58333 15.5 2.58333C22.6219 2.58333 28.4167 8.37749 28.4167 15.5C28.4167 22.6225 22.6219 28.4167 15.5 28.4167ZM21.5799 11.2465L17.3265 15.5L21.58 19.7535C22.0845 20.258 22.0845 21.0753 21.58 21.58C21.3276 21.8321 20.9972 21.9583 20.6667 21.9583C20.3361 21.9583 20.0057 21.8321 19.7535 21.5799L15.5 17.3265L11.2465 21.58C10.9943 21.8321 10.6639 21.9583 10.3333 21.9583C10.0028 21.9583 9.67239 21.8321 9.42013 21.5799C8.9156 21.0753 8.9156 20.258 9.42013 19.7533L13.6735 15.5L9.42 11.2465C8.91547 10.742 8.91547 9.92465 9.42 9.42C9.92452 8.91534 10.7419 8.91547 11.2465 9.42L15.5 13.6735L19.7535 9.42C20.258 8.91547 21.0753 8.91547 21.58 9.42C22.0847 9.92452 22.0845 10.742 21.5799 11.2465Z" fill="#295EA7"/>
</svg>
