<svg width="48" height="48" viewBox="0 0 48 48" fill="none" xmlns="http://www.w3.org/2000/svg">
<path d="M44.4 23.4C44.4 34.3352 35.2666 43.2 24 43.2C12.7334 43.2 3.6 34.3352 3.6 23.4C3.6 12.4648 12.7334 3.6 24 3.6C35.2666 3.6 44.4 12.4648 44.4 23.4Z" fill="white"/>
<path d="M24.4836 19.744C24.6479 19.968 24.73 20.2293 24.73 20.528C24.73 20.8416 24.7001 21.1402 24.6404 21.424C24.5956 21.6928 24.5135 21.984 24.394 22.2976C24.2745 22.5962 24.1177 22.9322 23.9236 23.3056C23.7295 23.664 23.4831 24.097 23.1844 24.6048L23.1172 24.5376C23.1172 24.5077 23.1097 24.4778 23.0948 24.448C22.9156 24.1792 22.7513 23.873 22.602 23.5296C22.4676 23.1712 22.3631 22.8053 22.2884 22.432C22.2287 22.0586 22.2137 21.6853 22.2436 21.312C22.2735 20.9237 22.3705 20.5578 22.5348 20.2144C22.6393 20.0053 22.8036 19.8186 23.0276 19.6544C23.2665 19.4901 23.5353 19.408 23.834 19.408C24.1177 19.408 24.3343 19.52 24.4836 19.744Z" fill="#410001"/>
<path d="M22.7364 28.0544C22.9455 27.696 23.1471 27.36 23.3412 27.0464L24.1476 27.9424C23.8041 28.1514 23.4532 28.3605 23.0948 28.5696C22.7364 28.7637 22.3855 28.9578 22.042 29.152C22.2959 28.7637 22.5273 28.3978 22.7364 28.0544Z" fill="#410001"/>
<path fill-rule="evenodd" clip-rule="evenodd" d="M24 48C37.2548 48 48 37.2548 48 24C48 10.7452 37.2548 0 24 0C10.7452 0 0 10.7452 0 24C0 37.2548 10.7452 48 24 48ZM12.74 22.6051C12.8739 22.6218 12.9828 22.6302 13.0665 22.6302C13.4516 22.58 13.8283 22.5465 14.1967 22.5297L15.3017 22.4293C15.3017 22.7139 15.3101 23.0069 15.3268 23.3083L15.3771 24.1622C15.0589 24.4971 14.6069 24.765 14.0208 24.9659C13.4516 25.1668 12.8739 25.2756 12.2879 25.2924C11.7186 25.3091 11.208 25.2254 10.7559 25.0412C10.3038 24.8403 10.0527 24.5138 10.0024 24.0617C9.93545 23.5427 10.0024 22.9818 10.2033 22.379C10.4043 21.7595 10.6722 21.1651 11.007 20.5959C11.3586 20.0098 11.7354 19.4824 12.1372 19.0136C12.5391 18.528 12.9074 18.1681 13.2423 17.9337C13.5771 17.716 13.8367 17.649 14.0208 17.7327C14.2218 17.7997 14.4645 18.009 14.7492 18.3606C14.9334 18.5783 15.151 18.595 15.4022 18.4108C15.5194 18.2936 15.5696 18.1681 15.5529 18.0341C15.5361 17.9002 15.4859 17.7746 15.4022 17.6574C15.285 17.49 15.1427 17.3225 14.9752 17.1551C14.8245 16.9709 14.6487 16.8202 14.4478 16.703C14.2636 16.5691 14.0543 16.4853 13.8199 16.4519C13.6023 16.4016 13.3679 16.41 13.1167 16.477C12.38 16.7784 11.7103 17.2221 11.1075 17.8081C10.5215 18.3774 10.0108 19.0136 9.57547 19.7168C9.14014 20.4201 8.80527 21.1484 8.57086 21.9018C8.33645 22.6553 8.21925 23.3585 8.21925 24.0115C8.21925 24.698 8.42854 25.284 8.84713 25.7696C9.28246 26.2384 9.84336 26.5733 10.5298 26.7742C11.2331 26.9584 12.02 26.9835 12.8907 26.8495C13.7613 26.7156 14.6487 26.3723 15.5529 25.8198C15.6868 26.8746 15.9129 27.8123 16.231 28.6327C16.3984 29.068 16.6579 29.2857 17.0096 29.2857C17.1937 29.2857 17.3277 29.2355 17.4114 29.135C17.5119 29.0178 17.5453 28.8922 17.5119 28.7583C17.4616 28.3899 17.403 27.9379 17.336 27.4021C17.2858 26.8663 17.2356 26.3054 17.1854 25.7194C17.1351 25.1333 17.0849 24.5557 17.0347 23.9864C17.0012 23.4004 16.9844 22.873 16.9844 22.4042H17.9388C18.2569 22.4042 18.5583 22.4125 18.843 22.4293C19.1109 22.446 19.3787 22.3707 19.6466 22.2032C19.9145 22.0358 20.0485 21.8014 20.0485 21.5C20.0485 21.3661 20.0066 21.2489 19.9229 21.1484C19.8392 21.0479 19.6634 20.9977 19.3955 20.9977C18.9267 20.981 18.4244 20.9558 17.8886 20.9224C17.3528 20.8721 16.8086 20.8386 16.2561 20.8219C15.7036 20.7884 15.151 20.7884 14.5985 20.8219C14.046 20.8386 13.5185 20.9056 13.0162 21.0228C12.6479 21.1233 12.38 21.274 12.2126 21.4749C12.0619 21.6591 11.9865 21.8181 11.9865 21.9521C11.9865 22.0525 12.0284 22.153 12.1121 22.2535C12.1958 22.3372 12.2879 22.4125 12.3884 22.4795C12.5056 22.5297 12.6228 22.5716 12.74 22.6051ZM22.2212 30.5632C22.5199 30.5034 22.8036 30.3989 23.0724 30.2496C23.4308 30.0554 23.7892 29.8538 24.1476 29.6448C24.506 29.4357 24.8569 29.2266 25.2004 29.0176C25.7231 29.5253 26.2308 29.9882 26.7236 30.4064C26.8879 30.4064 27.0895 30.3914 27.3284 30.3616C27.5823 30.3317 27.7913 30.2346 27.9556 30.0704C28.0303 29.9658 28.0079 29.8389 27.8884 29.6896C27.7839 29.5402 27.6719 29.4058 27.5524 29.2864C27.3732 29.1221 27.1865 28.9504 26.9924 28.7712L26.4324 28.2112C26.8505 27.9424 27.2537 27.6661 27.642 27.3824C28.0303 27.0986 28.4036 26.8224 28.762 26.5536C28.8964 26.464 29.0159 26.3594 29.1204 26.24C29.2399 26.1056 29.322 25.9712 29.3668 25.8368C29.4116 25.7024 29.4116 25.5754 29.3668 25.456C29.3369 25.3216 29.2473 25.2096 29.098 25.12C28.6799 25.12 28.2393 25.2544 27.7764 25.5232C27.3881 25.792 26.9924 26.0682 26.5892 26.352C26.2009 26.6208 25.7977 26.8896 25.3796 27.1584L24.7076 26.4864C24.4985 26.2474 24.2969 26.016 24.1028 25.792C24.4463 25.2096 24.7375 24.6944 24.9764 24.2464C25.2153 23.7984 25.4095 23.3877 25.5588 23.0144C25.7231 22.641 25.8425 22.305 25.9172 22.0064C25.9919 21.6928 26.0441 21.3866 26.074 21.088C26.0889 20.5952 26.0516 20.1472 25.962 19.744C25.8873 19.3408 25.7455 19.0048 25.5364 18.736C25.3273 18.4522 25.0436 18.2432 24.6852 18.1088C24.3417 17.9744 23.9087 17.937 23.386 17.9968C22.8633 18.1013 22.378 18.3477 21.93 18.736C21.4969 19.1242 21.1983 19.5722 21.034 20.08C20.7801 20.8565 20.7129 21.6554 20.8324 22.4768C20.9668 23.2981 21.2281 24.0448 21.6164 24.7168C21.706 24.896 21.818 25.0826 21.9524 25.2768C22.0868 25.4709 22.2361 25.68 22.4004 25.904C21.9076 26.6954 21.3252 27.6586 20.6532 28.7936C20.4441 29.2266 20.4292 29.6 20.6084 29.9136C20.7428 30.1674 20.9967 30.3616 21.37 30.496C21.6537 30.5856 21.9375 30.608 22.2212 30.5632ZM38.0941 23.5343C38.295 23.3669 38.362 23.1995 38.295 23.032C38.0271 22.7474 37.7258 22.5465 37.3909 22.4293C37.056 22.3121 36.7128 22.2702 36.3612 22.3037C35.9258 22.3372 35.3398 22.4042 34.6031 22.5046C33.8664 22.5883 33.1464 22.6888 32.4432 22.806L32.4934 21.5C32.5102 21.0647 32.5353 20.6293 32.5688 20.194C32.5688 20.1605 32.5604 20.127 32.5437 20.0936V19.968C32.8785 19.9177 33.2302 19.8759 33.5985 19.8424C33.9836 19.7922 34.3603 19.7419 34.7287 19.6917C35.1138 19.6415 35.4821 19.5996 35.8338 19.5661C36.1854 19.5159 36.4868 19.474 36.7379 19.4406C36.9891 19.4071 37.19 19.3317 37.3407 19.2145C37.5081 19.0973 37.5583 18.9215 37.4914 18.6871C37.2067 18.4025 36.897 18.2099 36.5621 18.1095C36.244 18.009 35.9091 17.9755 35.5575 18.009C35.2561 18.0257 34.8878 18.0592 34.4524 18.1095C34.0338 18.1597 33.5901 18.2183 33.1213 18.2853C32.6692 18.3522 32.2255 18.4276 31.7902 18.5113C31.3549 18.595 30.9865 18.6704 30.6851 18.7373C30.501 18.8043 30.3754 18.9048 30.3084 19.0387C30.2414 19.1559 30.208 19.2899 30.208 19.4406C30.208 19.6247 30.2749 19.7922 30.4089 19.9429C30.5596 20.0936 30.727 20.1856 30.9112 20.2191C30.8777 20.7047 30.8526 21.1986 30.8358 21.7009C30.8191 22.1865 30.794 22.672 30.7605 23.1576C30.4926 23.2748 30.3419 23.4925 30.3084 23.8106C30.3084 24.112 30.4507 24.3464 30.7354 24.5138C30.7019 25.351 30.7019 26.1798 30.7354 27.0002C30.7521 27.5862 30.9028 28.0383 31.1875 28.3564C31.4721 28.6578 31.8907 28.8001 32.4432 28.7834C33.3976 28.7667 34.3771 28.6411 35.3817 28.4067C36.3863 28.1555 37.4076 27.8625 38.4457 27.5276C38.5964 27.4774 38.7639 27.4104 38.948 27.3267C39.149 27.2263 39.3331 27.1258 39.5006 27.0253C39.6847 26.9081 39.8354 26.7993 39.9526 26.6988C40.0698 26.5984 40.1284 26.523 40.1284 26.4728C40.1284 26.2886 40.0782 26.1463 39.9778 26.0458C39.8773 25.9454 39.7434 25.8868 39.5759 25.87C39.4252 25.8366 39.2494 25.8366 39.0485 25.87C38.8476 25.8868 38.655 25.9203 38.4708 25.9705C38.1025 26.0542 37.6504 26.1631 37.1146 26.297C36.5956 26.4142 36.0514 26.5314 35.4821 26.6486C34.9129 26.7658 34.352 26.8663 33.7994 26.95C33.2636 27.017 32.8032 27.0505 32.4181 27.0505C32.3846 26.1965 32.3846 25.3426 32.4181 24.4887C33.2385 24.3715 34.0422 24.2627 34.8292 24.1622C35.6161 24.045 36.3863 23.9362 37.1397 23.8357C37.5751 23.7855 37.8932 23.685 38.0941 23.5343Z" fill="#410001"/>
</svg>
