<svg xmlns="http://www.w3.org/2000/svg" width="40" height="40" viewBox="0 0 40 40" fill="none">
  <path d="M37 19.5C37 28.6127 29.3888 36 20 36C10.6112 36 3 28.6127 3 19.5C3 10.3873 10.6112 3 20 3C29.3888 3 37 10.3873 37 19.5Z" fill="white"/>
  <path d="M20.403 16.4533C20.5399 16.64 20.6083 16.8578 20.6083 17.1066C20.6083 17.368 20.5834 17.6169 20.5337 17.8533C20.4963 18.0773 20.4279 18.32 20.3283 18.5813C20.2288 18.8302 20.0981 19.1102 19.9363 19.4213C19.7746 19.72 19.5692 20.0809 19.3203 20.504L19.2643 20.448C19.2643 20.4231 19.2581 20.3982 19.2457 20.3733C19.0963 20.1493 18.9594 19.8942 18.835 19.608C18.723 19.3093 18.6359 19.0044 18.5737 18.6933C18.5239 18.3822 18.5114 18.0711 18.5363 17.76C18.5612 17.4364 18.6421 17.1315 18.779 16.8453C18.8661 16.6711 19.003 16.5155 19.1897 16.3786C19.3888 16.2418 19.6128 16.1733 19.8617 16.1733C20.0981 16.1733 20.2786 16.2666 20.403 16.4533Z" fill="#E79F96"/>
  <path d="M18.947 23.3786C19.1212 23.08 19.2892 22.8 19.451 22.5386L20.123 23.2853C19.8368 23.4595 19.5443 23.6338 19.2457 23.808C18.947 23.9698 18.6546 24.1315 18.3683 24.2933C18.5799 23.9698 18.7728 23.6649 18.947 23.3786Z" fill="#E79F96"/>
  <path fill-rule="evenodd" clip-rule="evenodd" d="M20 40C31.0457 40 40 31.0457 40 20C40 8.9543 31.0457 0 20 0C8.9543 0 0 8.9543 0 20C0 31.0457 8.9543 40 20 40ZM10.6166 18.8376C10.7283 18.8515 10.819 18.8585 10.8887 18.8585C11.2096 18.8166 11.5236 18.7887 11.8305 18.7748L12.7514 18.6911C12.7514 18.9283 12.7584 19.1724 12.7724 19.4236L12.8142 20.1352C12.5491 20.4142 12.1724 20.6375 11.684 20.8049C11.2096 20.9723 10.7283 21.063 10.2399 21.077C9.76552 21.0909 9.33996 21.0212 8.96323 20.8677C8.5865 20.7003 8.37721 20.4282 8.33535 20.0515C8.27954 19.6189 8.33535 19.1515 8.50279 18.6492C8.67022 18.1329 8.89347 17.6376 9.17252 17.1632C9.46553 16.6749 9.77947 16.2353 10.1143 15.8447C10.4492 15.44 10.7562 15.14 11.0352 14.9447C11.3143 14.7633 11.5306 14.7075 11.684 14.7773C11.8515 14.8331 12.0538 15.0075 12.291 15.3005C12.4445 15.4819 12.6259 15.4958 12.8352 15.3424C12.9328 15.2447 12.9747 15.14 12.9607 15.0284C12.9468 14.9168 12.9049 14.8122 12.8352 14.7145C12.7375 14.575 12.6189 14.4354 12.4794 14.2959C12.3538 14.1424 12.2073 14.0168 12.0398 13.9192C11.8864 13.8076 11.7119 13.7378 11.5166 13.7099C11.3352 13.668 11.1399 13.675 10.9306 13.7308C10.3167 13.982 9.75854 14.3517 9.25624 14.8401C8.76789 15.3145 8.34233 15.8447 7.97955 16.4307C7.61678 17.0167 7.33772 17.6237 7.14238 18.2515C6.94704 18.8794 6.84937 19.4654 6.84937 20.0096C6.84937 20.5817 7.02378 21.07 7.3726 21.4746C7.73538 21.8653 8.2028 22.1444 8.77487 22.3118C9.36089 22.4653 10.0167 22.4862 10.7422 22.3746C11.4678 22.263 12.2073 21.977 12.9607 21.5165C13.0723 22.3955 13.2607 23.1769 13.5258 23.8606C13.6653 24.2234 13.8816 24.4048 14.1746 24.4048C14.3281 24.4048 14.4397 24.3629 14.5095 24.2792C14.5932 24.1815 14.6211 24.0769 14.5932 23.9652C14.5514 23.6583 14.5025 23.2815 14.4467 22.8351C14.4048 22.3886 14.363 21.9211 14.3211 21.4328C14.2793 20.9444 14.2374 20.4631 14.1956 19.9887C14.1676 19.5003 14.1537 19.0608 14.1537 18.6701H14.949C15.2141 18.6701 15.4653 18.6771 15.7025 18.6911C15.9257 18.705 16.149 18.6422 16.3722 18.5027C16.5954 18.3632 16.7071 18.1678 16.7071 17.9167C16.7071 17.805 16.6722 17.7074 16.6024 17.6237C16.5327 17.5399 16.3862 17.4981 16.1629 17.4981C15.7722 17.4841 15.3536 17.4632 14.9072 17.4353C14.4607 17.3934 14.0072 17.3655 13.5467 17.3516C13.0863 17.3237 12.6259 17.3237 12.1654 17.3516C11.705 17.3655 11.2655 17.4213 10.8469 17.519C10.5399 17.6027 10.3167 17.7283 10.1771 17.8957C10.0516 18.0492 9.98877 18.1818 9.98877 18.2934C9.98877 18.3771 10.0236 18.4608 10.0934 18.5445C10.1632 18.6143 10.2399 18.6771 10.3236 18.7329C10.4213 18.7748 10.519 18.8097 10.6166 18.8376ZM18.5177 25.4693C18.7666 25.4195 19.003 25.3324 19.227 25.208C19.5257 25.0462 19.8243 24.8782 20.123 24.704C20.4217 24.5298 20.7141 24.3555 21.0003 24.1813C21.4359 24.6044 21.859 24.9902 22.2697 25.3386C22.4066 25.3386 22.5746 25.3262 22.7737 25.3013C22.9852 25.2764 23.1594 25.1955 23.2963 25.0586C23.3586 24.9715 23.3399 24.8658 23.2403 24.7413C23.1532 24.6169 23.0599 24.5049 22.9603 24.4053C22.811 24.2684 22.6554 24.1253 22.4937 23.976L22.027 23.5093C22.3754 23.2853 22.7114 23.0551 23.035 22.8186C23.3586 22.5822 23.6697 22.352 23.9683 22.128C24.0803 22.0533 24.1799 21.9662 24.267 21.8666C24.3666 21.7547 24.435 21.6426 24.4723 21.5306C24.5097 21.4186 24.5097 21.3129 24.4723 21.2133C24.4474 21.1013 24.3728 21.008 24.2483 20.9333C23.8999 20.9333 23.5328 21.0453 23.147 21.2693C22.8234 21.4933 22.4937 21.7235 22.1577 21.96C21.8341 22.184 21.4981 22.408 21.1497 22.632L20.5897 22.072C20.4154 21.8729 20.2474 21.68 20.0857 21.4933C20.3719 21.008 20.6146 20.5786 20.8137 20.2053C21.0128 19.832 21.1746 19.4898 21.299 19.1786C21.4359 18.8675 21.5354 18.5875 21.5977 18.3386C21.6599 18.0773 21.7034 17.8222 21.7283 17.5733C21.7408 17.1626 21.7097 16.7893 21.635 16.4533C21.5728 16.1173 21.4546 15.8373 21.2803 15.6133C21.1061 15.3769 20.8697 15.2026 20.571 15.0906C20.2848 14.9786 19.9239 14.9475 19.4883 14.9973C19.0528 15.0844 18.6483 15.2898 18.275 15.6133C17.9141 15.9369 17.6652 16.3102 17.5283 16.7333C17.3168 17.3804 17.2608 18.0462 17.3603 18.7306C17.4723 19.4151 17.6901 20.0373 18.0137 20.5973C18.0883 20.7466 18.1817 20.9022 18.2937 21.064C18.4057 21.2258 18.5301 21.4 18.667 21.5866C18.2563 22.2462 17.771 23.0489 17.211 23.9946C17.0368 24.3555 17.0243 24.6666 17.1737 24.928C17.2857 25.1395 17.4972 25.3013 17.8083 25.4133C18.0448 25.488 18.2812 25.5066 18.5177 25.4693ZM31.7451 19.6119C31.9125 19.4724 31.9683 19.3329 31.9125 19.1934C31.6893 18.9562 31.4381 18.7887 31.1591 18.6911C30.88 18.5934 30.594 18.5585 30.301 18.5864C29.9382 18.6143 29.4499 18.6701 28.8359 18.7538C28.222 18.8236 27.622 18.9073 27.036 19.005L27.0779 17.9167C27.0918 17.5539 27.1127 17.1911 27.1407 16.8283C27.1407 16.8004 27.1337 16.7725 27.1197 16.7446V16.64C27.3988 16.5981 27.6918 16.5632 27.9988 16.5353C28.3197 16.4935 28.6336 16.4516 28.9406 16.4098C29.2615 16.3679 29.5685 16.333 29.8615 16.3051C30.1545 16.2633 30.4056 16.2284 30.6149 16.2005C30.8242 16.1726 30.9916 16.1098 31.1172 16.0121C31.2567 15.9144 31.2986 15.7679 31.2428 15.5726C31.0056 15.3354 30.7475 15.1749 30.4684 15.0912C30.2033 15.0075 29.9242 14.9796 29.6312 15.0075C29.3801 15.0215 29.0731 15.0494 28.7104 15.0912C28.3615 15.1331 27.9918 15.1819 27.6011 15.2377C27.2244 15.2935 26.8546 15.3563 26.4918 15.4261C26.1291 15.4958 25.8221 15.5586 25.571 15.6144C25.4175 15.6703 25.3128 15.754 25.257 15.8656C25.2012 15.9633 25.1733 16.0749 25.1733 16.2005C25.1733 16.3539 25.2291 16.4935 25.3407 16.6191C25.4663 16.7446 25.6058 16.8214 25.7593 16.8493C25.7314 17.2539 25.7105 17.6655 25.6965 18.0841C25.6826 18.4887 25.6616 18.8934 25.6337 19.298C25.4105 19.3957 25.2849 19.5771 25.257 19.8422C25.257 20.0933 25.3756 20.2887 25.6128 20.4282C25.5849 21.1258 25.5849 21.8165 25.6128 22.5002C25.6268 22.9885 25.7523 23.3653 25.9895 23.6304C26.2267 23.8815 26.5756 24.0001 27.036 23.9862C27.8313 23.9722 28.6476 23.8676 29.4847 23.6722C30.3219 23.4629 31.173 23.2188 32.0381 22.9397C32.1637 22.8978 32.3032 22.842 32.4567 22.7723C32.6241 22.6885 32.7776 22.6048 32.9171 22.5211C33.0706 22.4234 33.1962 22.3328 33.2939 22.249C33.3915 22.1653 33.4404 22.1025 33.4404 22.0607C33.4404 21.9072 33.3985 21.7886 33.3148 21.7049C33.2311 21.6212 33.1195 21.5723 32.9799 21.5584C32.8544 21.5305 32.7078 21.5305 32.5404 21.5584C32.373 21.5723 32.2125 21.6002 32.059 21.6421C31.7521 21.7118 31.3753 21.8025 30.9289 21.9142C30.4963 22.0118 30.0428 22.1095 29.5685 22.2072C29.0941 22.3048 28.6266 22.3886 28.1662 22.4583C27.7197 22.5141 27.336 22.542 27.0151 22.542C26.9872 21.8304 26.9872 21.1189 27.0151 20.4073C27.6988 20.3096 28.3685 20.2189 29.0243 20.1352C29.6801 20.0375 30.3219 19.9468 30.9498 19.8631C31.3126 19.8212 31.5777 19.7375 31.7451 19.6119Z" fill="#E79F96"/>
</svg>